<svg id="Layer_1" data-name="Layer 1" xmlns="http://www.w3.org/2000/svg" viewBox="0 0 211.2 211.2"><defs><style>.cls-1{fill:#00a896;}.cls-2{fill:#162a33;}</style></defs><circle class="cls-1" cx="105.6" cy="105.6" r="105.6"/><path class="cls-2" d="M179.1,86.3,151.6,67.4h0L120,45.5a6.19,6.19,0,0,0-6.9,0L65.9,77.9h0L53.7,86.3A8.07,8.07,0,0,0,50.2,93v69.6a4.27,4.27,0,0,0,4.3,4.3H58a4.27,4.27,0,0,0,4.3-4.3V95.1l38.2-26.3h0l15.9-10.9,42.4,29.3c.3.2.7.4,1,.6l10.6,7.3v67.4a4.27,4.27,0,0,0,4.3,4.3h3.6a4.27,4.27,0,0,0,4.3-4.3V93A8.07,8.07,0,0,0,179.1,86.3Z" transform="translate(-10.8 -10.8)"/><path class="cls-2" d="M150.3,127.4H82.4a4.27,4.27,0,0,0-4.3,4.3v2.6a4.27,4.27,0,0,0,4.3,4.3h67.9a4.27,4.27,0,0,0,4.3-4.3v-2.6A4.27,4.27,0,0,0,150.3,127.4Z" transform="translate(-10.8 -10.8)"/><path class="cls-2" d="M150.3,153.1H82.4a4.27,4.27,0,0,0-4.3,4.3V160a4.27,4.27,0,0,0,4.3,4.3h67.9a4.27,4.27,0,0,0,4.3-4.3v-2.6A4.27,4.27,0,0,0,150.3,153.1Z" transform="translate(-10.8 -10.8)"/><path class="cls-2" d="M150.3,101.7H82.4a4.27,4.27,0,0,0-4.3,4.3v2.6a4.27,4.27,0,0,0,4.3,4.3h67.9a4.27,4.27,0,0,0,4.3-4.3V106A4.27,4.27,0,0,0,150.3,101.7Z" transform="translate(-10.8 -10.8)"/></svg>